<?xml version="1.0" encoding="utf-8"?>
<!-- Svg Vector Icons : http://www.onlinewebfonts.com/icon -->
<!DOCTYPE svg PUBLIC "-//W3C//DTD SVG 1.1//EN" "http://www.w3.org/Graphics/SVG/1.1/DTD/svg11.dtd">
<svg version="1.1" xmlns="http://www.w3.org/2000/svg" xmlns:xlink="http://www.w3.org/1999/xlink" x="0px" y="0px" viewBox="0 0 1000 1000" enable-background="new 0 0 1000 1000" xml:space="preserve">
<metadata> Svg Vector Icons : http://www.onlinewebfonts.com/icon </metadata>
<g><path d="M899.3,214.5c11.1-13.9,17.7-31.8,17.7-50.9c0-45.2-36.8-82.2-82-82.2c-19.3,0-37,6.6-50.9,17.7C704,42,607.4,10,501.6,10C231,10,10,227.9,10,499.1C10,770.2,230.7,990,501.4,990C772.1,990,990,770.2,990,499.1C990,393,956.3,294.8,899.3,214.5z M834.5,112c28.7,0,51.8,23.3,51.8,51.8c0,28.7-23.3,51.8-51.8,51.8c-28.7,0-51.8-23.3-51.8-51.8C782.7,135.3,805.8,112,834.5,112z M819.9,819.7c-41.5,41.5-90,74.4-143.9,97.3c-55.8,23.6-113.5,35.8-174.8,35.8c-61,0-121.8-12-177.6-35.8c-53.9-22.9-102.2-55.4-143.9-97.3c-41.5-41.5-74.2-90.2-97.1-144.2C59,619.7,47,560.3,47,499.1c0-61,12-120.6,35.6-176.4c22.9-53.9,55.4-102.5,97.1-144.2c41.7-41.7,90-74.4,143.9-97.3c55.8-23.6,116.4-33.2,177.6-33.2c61,0,119,9.4,174.8,33.2c29.9,12.7,58.2,28.5,84.6,47.1c-4.9,10.6-7.8,22.4-7.8,35.1c0,45.2,36.8,82.2,82,82.2c12.5,0,24.3-2.8,35.1-7.8c18.6,26.4,34.4,54.7,47.1,84.8c23.6,55.8,35.6,115.2,35.6,176.4c0,61-12,120.6-35.6,176.4C894.1,729.5,861.6,778,819.9,819.7z"/><path d="M501.2,274.1C376.3,274.1,275,374.9,275,500s101.1,226.4,226.2,226.4c124.9,0,226.2-101.3,226.2-226.4S626,274.1,501.2,274.1z M501.2,688c-103.9,0-187.8-84.3-187.8-188c0-103.9,83.9-187.5,187.8-187.5S688.9,396.3,688.9,500C688.9,603.9,604.8,688,501.2,688z"/></g>
</svg>